<svg xmlns="http://www.w3.org/2000/svg" width="248.25" height="113.691" viewBox="0 0 248.25 113.691">
  <g id="Knivsta_-_Logotyp_-_Sidfot" data-name="Knivsta - Logotyp - Sidfot" transform="translate(0 0.25)">
    <path id="Path_1329" data-name="Path 1329" d="M489.761,55.988a32.936,32.936,0,0,1-65.871,0V12.4h65.871V56h0Z" transform="translate(-241.761 -12.4)" fill="#fff" stroke="#fff" stroke-width="0.5"/>
    <g id="Group_432" data-name="Group 432" transform="translate(0 18.846)">
      <g id="Group_427" data-name="Group 427">
        <path id="Path_1330" data-name="Path 1330" d="M210.955,82.209c-6.352-7.368-12.576-14.482-19.3-21.91l-1.33,1.2c0,4.633,0,14.99.127,18.921l5.522.254v1.651c-1.524,0-3.938-.127-7.876-.127s-6.411.127-7.936.127V80.677l4.446-.254c.127-3.43.127-4.192.127-12.449,0-21.842,0-24.256-.127-28.448l-4.446-.254V37.62c2.033.067,4.065.127,7.555.127s5.462-.06,7.622-.127v1.651l-4.887.254c-.127,3.938-.127,15.371-.127,20.191L200.867,50c1.2-1.076,9.909-9.146,9.909-9.782,0-.508-.695-.762-5.589-.822V37.747c9.333,0,9.782,0,13.339-.127v1.906c-3.744.508-6.666,3.049-12,7.749l-10.671,9.273,9.019,10.417c1.584,1.711,8.571,9.333,10.036,10.858,2.346,2.346,3.3,2.6,4.573,2.855V82.2h-8.511Z" transform="translate(-180.16 -37.62)" fill="#fff"/>
        <path id="Path_1331" data-name="Path 1331" d="M232.094,86.444l3.363-.06V64.221l-3.557-.127V61.553l7.682-.889c0,1.838.127,2.346.762,2.346.695,0,4.887-2.6,10.163-2.6,4.954,0,8.063,2.541,8.063,7.682V86.385l3.363.06v1.524H250.753V86.444l3.236-.06V68.413c0-4.252-.949-6.1-6.03-6.1-2.16,0-5.589.575-7.3,1.651-.381.254-.635.822-.635,2.473V86.377l3.3.06v1.524H232.087V86.437Z" transform="translate(-193.237 -43.38)" fill="#fff"/>
      </g>
      <g id="Group_428" data-name="Group 428" transform="translate(71.632 1.285)">
        <path id="Path_1332" data-name="Path 1332" d="M276.02,81.119l3.557-.06V60.106c0-1.651-.187-1.778-3.236-1.965V56.236l7.809-1.016V81.067l3.363.06v1.524H276.02V81.127ZM284.658,42a3.143,3.143,0,0,1-2.982,3.3,2.563,2.563,0,0,1-2.6-2.727,3.057,3.057,0,0,1,3.049-3.236,2.469,2.469,0,0,1,2.541,2.668Z" transform="translate(-276.02 -39.34)" fill="#fff"/>
        <path id="Path_1333" data-name="Path 1333" d="M305.458,89.37,296,65.555c-.889-2.092-1.016-2.219-2.727-2.346V61.43h9.655v1.778c-2.033,0-2.668.187-2.668.508,0,.381,1.33,4,1.584,4.7l5.649,15.244,6.987-17.023a17.646,17.646,0,0,0,.889-2.473c0-.314-.381-.568-2.473-.568v-2.16h6.479v1.906c-2.16.448-2.346.822-4.192,5.208l-8.765,20.826h-.957Z" transform="translate(-280.38 -44.923)" fill="#fff"/>
      </g>
      <g id="Group_429" data-name="Group 429" transform="translate(111.551 6.613)">
        <path id="Path_1334" data-name="Path 1334" d="M329.44,80.4h1.524c.568,2.727,2.16,7.114,6.352,7.114,3.3,0,4.827-2.6,4.827-5.081,0-7.428-11.941-7.241-11.941-15.177,0-4,3.49-7.174,7.809-7.174,3.363,0,4.954,1.457,7.174,2.219l.127,5.268h-1.33c-.889-3.109-1.838-6.1-5.4-6.1-2.795,0-4.954,2.033-4.954,4.252,0,6.225,12.449,6.479,12.449,14.923A8.361,8.361,0,0,1,337.57,88.9c-1.905,0-4.252-.568-7.749-2.033l-.381-6.479Z" transform="translate(-329.44 -49.91)" fill="#fff"/>
        <path id="Path_1335" data-name="Path 1335" d="M372.5,83.624c-2.6.949-4.319,1.584-6.606,1.584-4,0-5.9-1.906-5.844-7.809l.254-17.209-3.938.187V58.411l2.922-.127c.762,0,1.016-.314,1.016-.889l.127-10.925h4.506l-.127,11.56a64.168,64.168,0,0,0,7.682-.635v2.414c-2.414-.06-6.987,0-7.368.381s-.381.822-.381,3.744l-.127,10.985c-.127,6.606.822,8.257,4.065,8.257a13.371,13.371,0,0,0,3.811-.508v.949Z" transform="translate(-336.246 -46.47)" fill="#fff"/>
      </g>
      <path id="Path_1336" data-name="Path 1336" d="M405.6,87.25a34.318,34.318,0,0,1-5.971,1.4c-1.2,0-1.838-.889-1.905-2.092s-.06-1.33-.321-1.33c-2.668,1.4-6.284,3.684-9.782,3.684a5.661,5.661,0,0,1-5.717-5.9c0-6.157,7.241-8.444,15.939-8.7l.06-8.13c.06-3.557-.762-4.192-4.506-4.192-3.363,0-5.335.695-5.462,1.27-.254,1.965-.508,3.43-.7,4.506a3.661,3.661,0,0,1-2.414,1.711c-1.016,0-1.4-1.143-1.4-2.541,0-2.541,1.27-3.43,3.049-4.379a23.762,23.762,0,0,1,9.782-2.473c4.506,0,6.1,2.092,6.1,5.971l-.06,19.556h3.3v1.651Zm-7.809-10.671c.06-1.2-.127-1.27-.7-1.27s-10.858.889-10.858,7.174c0,2.219,1.016,3.744,3.744,3.744a19.529,19.529,0,0,0,6.733-1.778c.949-.381,1.016-.448,1.076-1.838v-6.03Z" transform="translate(-231.148 -43.297)" fill="#fff"/>
      <g id="Group_430" data-name="Group 430" transform="translate(16.447 46.203)">
        <path id="Path_1337" data-name="Path 1337" d="M223.564,146.819l-10.35-12.2c-.635-.635-.822-.695-1.076-.635-.381,0-.635.448-.635,1.084v10.163l3.43.067v1.524h-11.62V145.3l3.617-.067V103.448c0-.949-.381-1.076-4.76-1.076v-2.033a63.749,63.749,0,0,0,9.46-.889c-.067,2.346-.127,9.782-.127,12.449v20.639c0,.314.127.441.381.441s9.333-10.222,9.333-10.477c0-.321-1.965-.321-2.414-.321v-1.906l9.079-.508V121.8c-4.7.575-5.268,1.076-7.809,3.871l-4.065,4.379a1.441,1.441,0,0,0-.448.635c0,.127.067.187.321.508l5.971,7.047c5.335,6.225,5.776,6.352,7.809,6.86v1.711h-6.1Z" transform="translate(-202.17 -99.45)" fill="#fff"/>
        <path id="Path_1338" data-name="Path 1338" d="M253.886,125.62c10.1,0,12.763,8.063,12.763,13.72,0,7.809-4.76,15.117-13.271,15.117-6.606,0-13.4-4.633-13.4-14.1,0-11.306,7.682-14.736,13.906-14.736Zm-.568,27.432c5.844,0,8.511-6.352,8.511-13.084,0-7.241-2.855-12.957-8-12.957-3.363,0-9.019,2.982-9.019,13.084,0,6.733,3.176,12.957,8.511,12.957Z" transform="translate(-211.726 -106.064)" fill="#fff"/>
        <path id="Path_1339" data-name="Path 1339" d="M279.437,151.994l3.3-.067v-22.1l-3.49-.127v-2.6l7.682-1.016c.06,2.287.06,2.473.762,2.473.448,0,5.141-2.6,9.655-2.6s6.157,2.033,7.114,3.3c2.922-1.457,6.606-3.3,10.671-3.3,6.1,0,8.384,2.922,8.384,9.4v16.574l3.3.067v1.524H315.582V152l3.363-.067v-17.59c0-5.081-1.524-6.479-5.9-6.479-2.092,0-5.335.568-6.86,1.584-.762.441-.762.762-.762,3.43v19.048l3.363.067v1.524H297.543v-1.524l3.3-.067v-17.59c0-5.081-1.457-6.479-5.844-6.479-2.1,0-5.335.568-6.92,1.584-.762.441-.762.762-.762,3.43V151.92l3.363.067v1.524H279.444v-1.524Z" transform="translate(-221.651 -106.15)" fill="#fff"/>
        <path id="Path_1340" data-name="Path 1340" d="M346.567,151.994l3.3-.067v-22.1l-3.49-.127v-2.6l7.682-1.016c.06,2.287.06,2.473.762,2.473.441,0,5.141-2.6,9.655-2.6s6.157,2.033,7.114,3.3c2.922-1.457,6.606-3.3,10.671-3.3,6.1,0,8.384,2.922,8.384,9.4v16.574l3.3.067v1.524H382.712V152l3.363-.067v-17.59c0-5.081-1.524-6.479-5.9-6.479-2.1,0-5.335.568-6.86,1.584-.762.441-.762.762-.762,3.43v19.048l3.363.067v1.524H364.673v-1.524l3.3-.067v-17.59c0-5.081-1.465-6.479-5.844-6.479-2.092,0-5.335.568-6.92,1.584-.762.441-.762.762-.762,3.43V151.92l3.363.067v1.524H346.574v-1.524Z" transform="translate(-238.618 -106.15)" fill="#fff"/>
      </g>
      <g id="Group_431" data-name="Group 431" transform="translate(172.632 66.005)">
        <path id="Path_1341" data-name="Path 1341" d="M411.18,126.892l7.809-.762v19.81c0,4.954,1.524,6.733,7.047,6.733a15.413,15.413,0,0,0,6.352-1.2c.441-.254.7-.635.7-2.473V130.9c0-1.584-.321-1.778-4.065-1.846v-2.16l8.638-.762v25.145h3.176v1.906a38.435,38.435,0,0,1-5.522,1.016c-2.092,0-1.584-1.906-2.541-1.906-.568,0-4.954,2.033-10.036,2.033-6.03,0-8.317-2.541-8.317-10.163v-14.8l-3.236-.321v-2.16Z" transform="translate(-411.18 -125.995)" fill="#fff"/>
        <path id="Path_1342" data-name="Path 1342" d="M455.3,151.992l3.363-.067V129.761l-3.557-.127v-2.541l7.682-.889c0,1.838.127,2.346.762,2.346.695,0,4.887-2.6,10.163-2.6,4.954,0,8.063,2.541,8.063,7.682v18.285l3.363.067v1.524H473.963v-1.524l3.236-.067V133.946c0-4.252-.949-6.1-6.03-6.1-2.16,0-5.59.568-7.3,1.651-.381.254-.635.822-.635,2.473V151.91l3.3.067V153.5H455.3v-1.524Z" transform="translate(-422.283 -125.95)" fill="#fff"/>
      </g>
    </g>
    <g id="Group_433" data-name="Group 433" transform="translate(182.839 0.665)">
      <path id="Path_1343" data-name="Path 1343" d="M489.276,55.929a32.218,32.218,0,0,1-64.436,0V13.29h64.429V55.936h0Z" transform="translate(-424.84 -13.29)" fill="#e30613"/>
      <path id="Path_1344" data-name="Path 1344" d="M459.567,23.17a4.032,4.032,0,0,1,4.043,3.9A3.923,3.923,0,0,1,462,30.239a3.92,3.92,0,0,1,2.062-.583,3.9,3.9,0,1,1-3.094,6.232c.015,4.984,2.384,5.455,3.938,5.492a3.786,3.786,0,0,0,3.677-2.787,3.187,3.187,0,0,1,.374.015,3.5,3.5,0,0,0,3.124,2.855c2.227.463,4.043-.71,4.977-3.176a3.453,3.453,0,0,1-2.018.441,3.781,3.781,0,0,1-3.363-3.953,3.517,3.517,0,0,1,3.908-3.086,3.757,3.757,0,0,1,2.07.7,3.946,3.946,0,0,1-.553-2.907c.232-1.943,1.973-3,3.908-3.086a5.093,5.093,0,0,1,3.138.628s-1.7,1.211-4.909,12.987c-1.42,5.216-2.4,10.066-2.4,10.073s-8.608-.007-17.277-.007-17.269.007-17.269.007-.979-4.857-2.4-10.073c-3.206-11.777-4.909-12.987-4.909-12.987a5.2,5.2,0,0,1,3.138-.628c1.935.09,3.669,1.143,3.908,3.086a3.989,3.989,0,0,1-.553,2.907,3.816,3.816,0,0,1,2.07-.7,3.517,3.517,0,0,1,3.908,3.086,3.781,3.781,0,0,1-3.363,3.953,3.453,3.453,0,0,1-2.018-.441c.934,2.466,2.742,3.535,4.969,3.071a3.489,3.489,0,0,0,3.056-2.735c0-.037.366-.03.374-.015a3.46,3.46,0,0,0,3.751,2.615c1.554-.037,3.931-.351,3.946-5.335a3.832,3.832,0,0,1-3.094,1.569,3.9,3.9,0,1,1,2.062-7.219,3.912,3.912,0,0,1-1.607-3.168,4.021,4.021,0,0,1,4.035-3.9h0Z" transform="translate(-427.405 -15.787)" fill="#ffd500"/>
    </g>
    <path id="Path_1345" data-name="Path 1345" d="M428.3,83.892a12.82,12.82,0,0,1,15.3.1,15.5,15.5,0,0,1,6.576-8.07,15.165,15.165,0,0,1,16.26.478,15.514,15.514,0,0,1,5.814,7.592,13.7,13.7,0,0,1,8-2.541,11.713,11.713,0,0,1,7.308,2.488,32.4,32.4,0,0,1-16.066,16.6c-11.515,5.522-21.685,2.653-28.216-.658A31.5,31.5,0,0,1,428.3,83.892Z" transform="translate(-242.875 -27.915)" fill="#fd0"/>
  </g>
</svg>
